<svg width="375" height="451" viewBox="0 0 375 451" fill="none" xmlns="http://www.w3.org/2000/svg">
<path d="M129.938 293.193C164.199 202.936 197.917 164.421 289.029 121.321C208.3 175.338 180.032 218.947 147.615 310.885C288.009 291.001 369.516 257.975 374.888 15.165C199.747 103.086 88.326 116.047 129.938 293.193Z" fill="url(#paint0_linear_1739_475)"/>
<path d="M365.838 179.494C361.205 226.491 351.594 265.626 335.066 300.252C307.693 357.595 261.54 402.264 188.631 449.86L187.26 450.753L185.884 449.869C175.774 443.364 166.171 436.91 157.051 430.484C157.14 428.225 156.983 426.237 156.562 425.043C155.24 421.294 152.538 405.189 150.259 390.695C161.048 398.583 172.683 406.49 185.223 414.489L186.589 415.358L187.951 414.479C250.654 373.898 290.392 335.781 313.966 286.82C320.163 273.95 325.218 260.347 329.295 245.787C343.86 228.101 356.072 206.39 365.838 179.494ZM188.493 0.696055C221.898 19.5711 248.241 33.3157 276.438 44.8635C265.13 50.0679 254.261 55.144 243.866 60.1768C226.43 52.1342 208.732 42.7403 187.812 31.0214L186.589 30.3352L185.361 31.0164C126.591 63.4474 91.7086 75.9844 27.4541 93.2565L25.6288 93.7453L25.5798 95.6359C23.6066 175.719 30.2197 234.333 54.102 283.537C68.9061 314.036 90.2864 340.791 120.138 366.772C123.149 381.268 128.445 396.139 134.402 413.793C86.7455 376.957 54.4566 339.919 33.5106 296.391C5.77831 238.759 -1.91311 170.074 0.381336 76.1315L0.430836 74.251L2.24548 73.7572C77.0142 53.4844 117.624 38.7632 186.022 0.691121L187.26 0L188.493 0.696055Z" fill="url(#paint1_linear_1739_475)"/>
<defs>
<linearGradient id="paint0_linear_1739_475" x1="258.21" y1="10.11" x2="258.21" y2="305.83" gradientUnits="userSpaceOnUse">
<stop stop-color="#5FA62D"/>
<stop offset="1" stop-color="#254011"/>
</linearGradient>
<linearGradient id="paint1_linear_1739_475" x1="184.648" y1="2.89776" x2="184.648" y2="447.742" gradientUnits="userSpaceOnUse">
<stop stop-color="#162455"/>
<stop offset="1" stop-color="#304FBB"/>
</linearGradient>
</defs>
</svg>
